STARTFONT 2.1
FONT -FontForge-ZXSpectrum-Cyr-Bold-8-80-75-75-P-50-ISO10646-1
SIZE 8 75 75
FONTBOUNDINGBOX 8 8 0 0
COMMENT "Generated by fontforge, http://fontforge.sourceforge.net"
COMMENT "ZX Spectrum 8x8 bold font with russian alphabet letters"
COMMENT "Created by https://t.me/djking26"
COMMENT "License: freeware"
STARTPROPERTIES 28
FONTBOUNDINGBOX "8 8 0 0"
FOUNDRY "FontForge"
FAMILY_NAME "ZXSpectrum"
WEIGHT_NAME "Bold"
SLANT "R"
PIXEL_SIZE 8
POINT_SIZE 80
RESOLUTION_X 75
RESOLUTION_Y 75
SPACING "P"
AVERAGE_WIDTH 50
CHARSET_REGISTRY "ISO10646"
CHARSET_ENCODING "1"
FONTNAME_REGISTRY ""
CHARSET_COLLECTIONS "ISO8859-5 ISO10646-1"
FONT_NAME "ZXSpectrumCyrBold"
FACE_NAME "ZXSpectrum"
FONT_VERSION "001.000"
FONT_ASCENT 7
FONT_DESCENT 1
UNDERLINE_POSITION 0
UNDERLINE_THICKNESS 1
X_HEIGHT 4
CAP_HEIGHT 6
RAW_ASCENT 875
RAW_DESCENT 125
NORM_SPACE 8
FIGURE_WIDTH 8
ENDPROPERTIES
CHARS 170
STARTCHAR space
ENCODING 32
SWIDTH 1000 0
DWIDTH 8 0
BBX 1 1 11 -1
BITMAP
00
ENDCHAR
STARTCHAR exclam
ENCODING 33
SWIDTH 1000 0
DWIDTH 8 0
BBX 2 6 3 1
BITMAP
C0
C0
C0
C0
00
C0
ENDCHAR
STARTCHAR quotedbl
ENCODING 34
SWIDTH 1000 0
DWIDTH 8 0
BBX 5 2 2 5
BITMAP
D8
D8
ENDCHAR
STARTCHAR numbersign
ENCODING 35
SWIDTH 1000 0
DWIDTH 8 0
BBX 7 6 0 1
BITMAP
6C
FE
6C
6C
FE
6C
ENDCHAR
STARTCHAR dollar
ENCODING 36
SWIDTH 1000 0
DWIDTH 8 0
BBX 6 7 1 0
BITMAP
30
FC
B0
FC
34
FC
30
ENDCHAR
STARTCHAR percent
ENCODING 37
SWIDTH 1000 0
DWIDTH 8 0
BBX 7 6 1 1
BITMAP
C6
CC
18
30
66
C6
ENDCHAR
STARTCHAR ampersand
ENCODING 38
SWIDTH 1000 0
DWIDTH 8 0
BBX 7 6 1 1
BITMAP
30
48
30
7A
CC
7A
ENDCHAR
STARTCHAR quotesingle
ENCODING 39
SWIDTH 1000 0
DWIDTH 8 0
BBX 3 2 3 5
BITMAP
60
C0
ENDCHAR
STARTCHAR parenleft
ENCODING 40
SWIDTH 1000 0
DWIDTH 8 0
BBX 3 6 2 1
BITMAP
60
C0
C0
C0
C0
60
ENDCHAR
STARTCHAR parenright
ENCODING 41
SWIDTH 1000 0
DWIDTH 8 0
BBX 3 6 3 1
BITMAP
C0
60
60
60
60
C0
ENDCHAR
STARTCHAR asterisk
ENCODING 42
SWIDTH 1000 0
DWIDTH 8 0
BBX 6 5 1 1
BITMAP
48
30
FC
30
48
ENDCHAR
STARTCHAR plus
ENCODING 43
SWIDTH 1000 0
DWIDTH 8 0
BBX 5 5 2 1
BITMAP
20
20
F8
20
20
ENDCHAR
STARTCHAR comma
ENCODING 44
SWIDTH 1000 0
DWIDTH 8 0
BBX 3 3 2 0
BITMAP
60
60
C0
ENDCHAR
STARTCHAR hyphen
ENCODING 45
SWIDTH 1000 0
DWIDTH 8 0
BBX 6 1 1 3
BITMAP
FC
ENDCHAR
STARTCHAR period
ENCODING 46
SWIDTH 1000 0
DWIDTH 8 0
BBX 2 2 3 0
BITMAP
C0
C0
ENDCHAR
STARTCHAR slash
ENCODING 47
SWIDTH 1000 0
DWIDTH 8 0
BBX 7 6 0 1
BITMAP
06
0C
18
30
60
C0
ENDCHAR
STARTCHAR zero
ENCODING 48
SWIDTH 1000 0
DWIDTH 8 0
BBX 7 6 0 1
BITMAP
7C
CE
DE
F6
E6
7C
ENDCHAR
STARTCHAR one
ENCODING 49
SWIDTH 1000 0
DWIDTH 8 0
BBX 6 6 1 1
BITMAP
70
F0
30
30
30
FC
ENDCHAR
STARTCHAR two
ENCODING 50
SWIDTH 1000 0
DWIDTH 8 0
BBX 7 6 0 1
BITMAP
7C
C6
06
7C
C0
FE
ENDCHAR
STARTCHAR three
ENCODING 51
SWIDTH 1000 0
DWIDTH 8 0
BBX 7 6 0 1
BITMAP
7C
C6
1C
06
C6
7C
ENDCHAR
STARTCHAR four
ENCODING 52
SWIDTH 1000 0
DWIDTH 8 0
BBX 7 6 0 1
BITMAP
1C
3C
6C
CC
FE
0C
ENDCHAR
STARTCHAR five
ENCODING 53
SWIDTH 1000 0
DWIDTH 8 0
BBX 7 6 0 1
BITMAP
FE
C0
FC
06
C6
7C
ENDCHAR
STARTCHAR six
ENCODING 54
SWIDTH 1000 0
DWIDTH 8 0
BBX 7 6 0 1
BITMAP
7C
C0
FC
C6
C6
7C
ENDCHAR
STARTCHAR seven
ENCODING 55
SWIDTH 1000 0
DWIDTH 8 0
BBX 7 6 0 1
BITMAP
FE
06
0C
18
30
30
ENDCHAR
STARTCHAR eight
ENCODING 56
SWIDTH 1000 0
DWIDTH 8 0
BBX 7 6 0 1
BITMAP
7C
C6
7C
C6
C6
7C
ENDCHAR
STARTCHAR nine
ENCODING 57
SWIDTH 1000 0
DWIDTH 8 0
BBX 7 6 0 1
BITMAP
7C
C6
C6
7E
06
7C
ENDCHAR
STARTCHAR colon
ENCODING 58
SWIDTH 1000 0
DWIDTH 8 0
BBX 2 4 3 1
BITMAP
C0
00
00
C0
ENDCHAR
STARTCHAR semicolon
ENCODING 59
SWIDTH 1000 0
DWIDTH 8 0
BBX 3 6 2 0
BITMAP
60
00
00
60
60
C0
ENDCHAR
STARTCHAR less
ENCODING 60
SWIDTH 1000 0
DWIDTH 8 0
BBX 4 5 2 1
BITMAP
30
60
C0
60
30
ENDCHAR
STARTCHAR equal
ENCODING 61
SWIDTH 1000 0
DWIDTH 8 0
BBX 6 3 1 2
BITMAP
FC
00
FC
ENDCHAR
STARTCHAR greater
ENCODING 62
SWIDTH 1000 0
DWIDTH 8 0
BBX 4 5 2 1
BITMAP
C0
60
30
60
C0
ENDCHAR
STARTCHAR question
ENCODING 63
SWIDTH 1000 0
DWIDTH 8 0
BBX 7 6 0 1
BITMAP
7C
C6
0C
18
00
18
ENDCHAR
STARTCHAR at
ENCODING 64
SWIDTH 1000 0
DWIDTH 8 0
BBX 7 6 0 1
BITMAP
7C
CE
D6
DE
C0
7E
ENDCHAR
STARTCHAR A
ENCODING 65
SWIDTH 1000 0
DWIDTH 8 0
BBX 7 6 0 1
BITMAP
7C
C6
C6
FE
C6
C6
ENDCHAR
STARTCHAR B
ENCODING 66
SWIDTH 1000 0
DWIDTH 8 0
BBX 7 6 0 1
BITMAP
FC
C6
FC
C6
C6
FC
ENDCHAR
STARTCHAR C
ENCODING 67
SWIDTH 1000 0
DWIDTH 8 0
BBX 7 6 0 1
BITMAP
7C
C6
C0
C0
C6
7C
ENDCHAR
STARTCHAR D
ENCODING 68
SWIDTH 1000 0
DWIDTH 8 0
BBX 7 6 0 1
BITMAP
F8
CC
C6
C6
CC
F8
ENDCHAR
STARTCHAR E
ENCODING 69
SWIDTH 1000 0
DWIDTH 8 0
BBX 7 6 0 1
BITMAP
FE
C0
F8
C0
C0
FE
ENDCHAR
STARTCHAR F
ENCODING 70
SWIDTH 1000 0
DWIDTH 8 0
BBX 7 6 0 1
BITMAP
FE
C0
F8
C0
C0
C0
ENDCHAR
STARTCHAR G
ENCODING 71
SWIDTH 1000 0
DWIDTH 8 0
BBX 7 6 0 1
BITMAP
7C
C6
C0
DE
C6
7C
ENDCHAR
STARTCHAR H
ENCODING 72
SWIDTH 1000 0
DWIDTH 8 0
BBX 7 6 0 1
BITMAP
C6
C6
FE
C6
C6
C6
ENDCHAR
STARTCHAR I
ENCODING 73
SWIDTH 1000 0
DWIDTH 8 0
BBX 6 6 1 1
BITMAP
FC
30
30
30
30
FC
ENDCHAR
STARTCHAR J
ENCODING 74
SWIDTH 1000 0
DWIDTH 8 0
BBX 7 6 0 1
BITMAP
06
06
06
06
C6
7C
ENDCHAR
STARTCHAR K
ENCODING 75
SWIDTH 1000 0
DWIDTH 8 0
BBX 7 6 0 1
BITMAP
CC
D8
F0
D8
CC
C6
ENDCHAR
STARTCHAR L
ENCODING 76
SWIDTH 1000 0
DWIDTH 8 0
BBX 7 6 0 1
BITMAP
C0
C0
C0
C0
C0
FE
ENDCHAR
STARTCHAR M
ENCODING 77
SWIDTH 1000 0
DWIDTH 8 0
BBX 7 6 0 1
BITMAP
C6
EE
D6
D6
C6
C6
ENDCHAR
STARTCHAR N
ENCODING 78
SWIDTH 1000 0
DWIDTH 8 0
BBX 7 6 0 1
BITMAP
C6
E6
F6
DE
CE
C6
ENDCHAR
STARTCHAR O
ENCODING 79
SWIDTH 1000 0
DWIDTH 8 0
BBX 7 6 0 1
BITMAP
7C
C6
C6
C6
C6
7C
ENDCHAR
STARTCHAR P
ENCODING 80
SWIDTH 1000 0
DWIDTH 8 0
BBX 7 6 0 1
BITMAP
FC
C6
C6
FC
C0
C0
ENDCHAR
STARTCHAR Q
ENCODING 81
SWIDTH 1000 0
DWIDTH 8 0
BBX 7 6 0 1
BITMAP
7C
C6
C6
D6
CE
7C
ENDCHAR
STARTCHAR R
ENCODING 82
SWIDTH 1000 0
DWIDTH 8 0
BBX 7 6 0 1
BITMAP
FC
C6
C6
FC
CC
C6
ENDCHAR
STARTCHAR S
ENCODING 83
SWIDTH 1000 0
DWIDTH 8 0
BBX 7 6 0 1
BITMAP
7C
C0
7C
06
C6
7C
ENDCHAR
STARTCHAR T
ENCODING 84
SWIDTH 1000 0
DWIDTH 8 0
BBX 6 6 1 1
BITMAP
FC
30
30
30
30
30
ENDCHAR
STARTCHAR U
ENCODING 85
SWIDTH 1000 0
DWIDTH 8 0
BBX 7 6 0 1
BITMAP
C6
C6
C6
C6
C6
7C
ENDCHAR
STARTCHAR V
ENCODING 86
SWIDTH 1000 0
DWIDTH 8 0
BBX 7 6 0 1
BITMAP
C6
C6
C6
C6
6C
38
ENDCHAR
STARTCHAR W
ENCODING 87
SWIDTH 1000 0
DWIDTH 8 0
BBX 7 6 0 1
BITMAP
C6
C6
C6
D6
FE
6C
ENDCHAR
STARTCHAR X
ENCODING 88
SWIDTH 1000 0
DWIDTH 8 0
BBX 7 6 0 1
BITMAP
C6
6C
38
38
6C
C6
ENDCHAR
STARTCHAR Y
ENCODING 89
SWIDTH 1000 0
DWIDTH 8 0
BBX 6 6 1 1
BITMAP
CC
CC
78
30
30
30
ENDCHAR
STARTCHAR Z
ENCODING 90
SWIDTH 1000 0
DWIDTH 8 0
BBX 7 6 0 1
BITMAP
FE
0C
18
30
60
FE
ENDCHAR
STARTCHAR bracketleft
ENCODING 91
SWIDTH 1000 0
DWIDTH 8 0
BBX 4 6 2 1
BITMAP
F0
C0
C0
C0
C0
F0
ENDCHAR
STARTCHAR backslash
ENCODING 92
SWIDTH 1000 0
DWIDTH 8 0
BBX 7 6 0 1
BITMAP
C0
60
30
18
0C
06
ENDCHAR
STARTCHAR bracketright
ENCODING 93
SWIDTH 1000 0
DWIDTH 8 0
BBX 4 6 2 1
BITMAP
F0
30
30
30
30
F0
ENDCHAR
STARTCHAR asciicircum
ENCODING 94
SWIDTH 1000 0
DWIDTH 8 0
BBX 6 6 1 1
BITMAP
30
78
B4
30
30
30
ENDCHAR
STARTCHAR underscore
ENCODING 95
SWIDTH 1000 0
DWIDTH 8 0
BBX 8 1 0 0
BITMAP
FF
ENDCHAR
STARTCHAR grave
ENCODING 96
SWIDTH 1000 0
DWIDTH 8 0
BBX 3 2 3 5
BITMAP
C0
60
ENDCHAR
STARTCHAR a
ENCODING 97
SWIDTH 1000 0
DWIDTH 8 0
BBX 6 5 1 1
BITMAP
78
0C
7C
CC
7C
ENDCHAR
STARTCHAR b
ENCODING 98
SWIDTH 1000 0
DWIDTH 8 0
BBX 6 6 1 1
BITMAP
C0
C0
F8
CC
CC
F8
ENDCHAR
STARTCHAR c
ENCODING 99
SWIDTH 1000 0
DWIDTH 8 0
BBX 5 5 1 1
BITMAP
78
C0
C0
C0
78
ENDCHAR
STARTCHAR d
ENCODING 100
SWIDTH 1000 0
DWIDTH 8 0
BBX 6 6 1 1
BITMAP
0C
0C
7C
CC
CC
7C
ENDCHAR
STARTCHAR e
ENCODING 101
SWIDTH 1000 0
DWIDTH 8 0
BBX 6 5 1 1
BITMAP
78
CC
F8
C0
7C
ENDCHAR
STARTCHAR f
ENCODING 102
SWIDTH 1000 0
DWIDTH 8 0
BBX 4 6 3 1
BITMAP
70
C0
E0
C0
C0
C0
ENDCHAR
STARTCHAR g
ENCODING 103
SWIDTH 1000 0
DWIDTH 8 0
BBX 6 6 1 0
BITMAP
7C
CC
CC
7C
0C
78
ENDCHAR
STARTCHAR h
ENCODING 104
SWIDTH 1000 0
DWIDTH 8 0
BBX 6 6 1 1
BITMAP
C0
C0
F8
CC
CC
CC
ENDCHAR
STARTCHAR i
ENCODING 105
SWIDTH 1000 0
DWIDTH 8 0
BBX 4 6 2 1
BITMAP
60
00
E0
60
60
F0
ENDCHAR
STARTCHAR j
ENCODING 106
SWIDTH 1000 0
DWIDTH 8 0
BBX 5 7 2 0
BITMAP
18
00
18
18
18
D8
70
ENDCHAR
STARTCHAR k
ENCODING 107
SWIDTH 1000 0
DWIDTH 8 0
BBX 6 6 1 1
BITMAP
C0
D8
F0
F0
D8
CC
ENDCHAR
STARTCHAR l
ENCODING 108
SWIDTH 1000 0
DWIDTH 8 0
BBX 3 6 3 1
BITMAP
C0
C0
C0
C0
C0
60
ENDCHAR
STARTCHAR m
ENCODING 109
SWIDTH 1000 0
DWIDTH 8 0
BBX 7 5 0 1
BITMAP
FC
D6
D6
D6
D6
ENDCHAR
STARTCHAR n
ENCODING 110
SWIDTH 1000 0
DWIDTH 8 0
BBX 6 5 1 1
BITMAP
F8
CC
CC
CC
CC
ENDCHAR
STARTCHAR o
ENCODING 111
SWIDTH 1000 0
DWIDTH 8 0
BBX 6 5 1 1
BITMAP
78
CC
CC
CC
78
ENDCHAR
STARTCHAR p
ENCODING 112
SWIDTH 1000 0
DWIDTH 8 0
BBX 6 6 1 0
BITMAP
F8
CC
CC
F8
C0
C0
ENDCHAR
STARTCHAR q
ENCODING 113
SWIDTH 1000 0
DWIDTH 8 0
BBX 7 6 1 0
BITMAP
7C
CC
CC
7C
0C
0E
ENDCHAR
STARTCHAR r
ENCODING 114
SWIDTH 1000 0
DWIDTH 8 0
BBX 5 5 1 1
BITMAP
78
C0
C0
C0
C0
ENDCHAR
STARTCHAR s
ENCODING 115
SWIDTH 1000 0
DWIDTH 8 0
BBX 6 5 1 1
BITMAP
78
C0
78
0C
F8
ENDCHAR
STARTCHAR t
ENCODING 116
SWIDTH 1000 0
DWIDTH 8 0
BBX 4 6 2 1
BITMAP
60
F0
60
60
60
30
ENDCHAR
STARTCHAR u
ENCODING 117
SWIDTH 1000 0
DWIDTH 8 0
BBX 6 5 1 1
BITMAP
CC
CC
CC
CC
78
ENDCHAR
STARTCHAR v
ENCODING 118
SWIDTH 1000 0
DWIDTH 8 0
BBX 6 5 1 1
BITMAP
CC
CC
CC
78
30
ENDCHAR
STARTCHAR w
ENCODING 119
SWIDTH 1000 0
DWIDTH 8 0
BBX 7 5 0 1
BITMAP
D6
D6
D6
D6
7C
ENDCHAR
STARTCHAR x
ENCODING 120
SWIDTH 1000 0
DWIDTH 8 0
BBX 6 5 1 1
BITMAP
CC
78
30
78
CC
ENDCHAR
STARTCHAR y
ENCODING 121
SWIDTH 1000 0
DWIDTH 8 0
BBX 6 6 1 0
BITMAP
CC
CC
CC
7C
0C
78
ENDCHAR
STARTCHAR z
ENCODING 122
SWIDTH 1000 0
DWIDTH 8 0
BBX 6 5 1 1
BITMAP
FC
18
30
60
FC
ENDCHAR
STARTCHAR braceleft
ENCODING 123
SWIDTH 1000 0
DWIDTH 8 0
BBX 4 6 2 1
BITMAP
70
60
C0
60
60
70
ENDCHAR
STARTCHAR bar
ENCODING 124
SWIDTH 1000 0
DWIDTH 8 0
BBX 2 6 3 1
BITMAP
C0
C0
C0
C0
C0
C0
ENDCHAR
STARTCHAR braceright
ENCODING 125
SWIDTH 1000 0
DWIDTH 8 0
BBX 4 6 2 1
BITMAP
E0
60
30
60
60
E0
ENDCHAR
STARTCHAR asciitilde
ENCODING 126
SWIDTH 1000 0
DWIDTH 8 0
BBX 5 2 1 5
BITMAP
68
B0
ENDCHAR
STARTCHAR uni007F
ENCODING 127
SWIDTH 1000 0
DWIDTH 8 0
BBX 1 1 0 0
BITMAP
00
ENDCHAR
STARTCHAR copyright
ENCODING 169
SWIDTH 1000 0
DWIDTH 8 0
BBX 8 8 0 0
BITMAP
3C
42
99
A1
A1
99
42
3C
ENDCHAR
STARTCHAR registered
ENCODING 174
SWIDTH 1000 0
DWIDTH 8 0
BBX 8 8 0 0
BITMAP
3C
42
B9
A5
B9
A5
42
3C
ENDCHAR
STARTCHAR afii10023
ENCODING 1025
SWIDTH 1000 0
DWIDTH 0 0
BBX 7 7 0 1
BITMAP
44
FE
C0
F8
C0
C0
FE
ENDCHAR
STARTCHAR afii10054
ENCODING 1029
SWIDTH 1000 0
DWIDTH 8 0
BBX 6 6 1 1
BITMAP
78
C0
78
0C
CC
78
ENDCHAR
STARTCHAR afii10055
ENCODING 1030
SWIDTH 1000 0
DWIDTH 8 0
BBX 6 6 1 1
BITMAP
FC
30
30
30
30
FC
ENDCHAR
STARTCHAR afii10057
ENCODING 1032
SWIDTH 1000 0
DWIDTH 8 0
BBX 6 6 1 1
BITMAP
0C
0C
0C
0C
CC
78
ENDCHAR
STARTCHAR afii10017
ENCODING 1040
SWIDTH 1000 0
DWIDTH 8 0
BBX 7 6 0 1
BITMAP
7C
C6
C6
FE
C6
C6
ENDCHAR
STARTCHAR afii10018
ENCODING 1041
SWIDTH 1000 0
DWIDTH 8 0
BBX 7 6 0 1
BITMAP
FE
C0
FC
C6
C6
FC
ENDCHAR
STARTCHAR afii10019
ENCODING 1042
SWIDTH 1000 0
DWIDTH 8 0
BBX 7 6 0 1
BITMAP
FC
C6
FC
C6
C6
FC
ENDCHAR
STARTCHAR afii10020
ENCODING 1043
SWIDTH 1000 0
DWIDTH 8 0
BBX 6 6 1 1
BITMAP
FC
C0
C0
C0
C0
C0
ENDCHAR
STARTCHAR afii10021
ENCODING 1044
SWIDTH 1000 0
DWIDTH 8 0
BBX 7 7 0 0
BITMAP
3C
6C
6C
6C
6C
FE
C6
ENDCHAR
STARTCHAR afii10022
ENCODING 1045
SWIDTH 1000 0
DWIDTH 8 0
BBX 7 6 0 1
BITMAP
FE
C0
F8
C0
C0
FE
ENDCHAR
STARTCHAR afii10024
ENCODING 1046
SWIDTH 1000 0
DWIDTH 8 0
BBX 7 6 0 1
BITMAP
D6
D6
7C
D6
D6
D6
ENDCHAR
STARTCHAR afii10025
ENCODING 1047
SWIDTH 1000 0
DWIDTH 8 0
BBX 7 6 0 1
BITMAP
7C
C6
1C
06
C6
7C
ENDCHAR
STARTCHAR afii10026
ENCODING 1048
SWIDTH 1000 0
DWIDTH 8 0
BBX 7 6 0 1
BITMAP
C6
CE
DE
F6
E6
C6
ENDCHAR
STARTCHAR afii10027
ENCODING 1049
SWIDTH 1000 0
DWIDTH 8 0
BBX 7 7 0 1
BITMAP
38
C6
CE
DE
F6
E6
C6
ENDCHAR
STARTCHAR afii10028
ENCODING 1050
SWIDTH 1000 0
DWIDTH 8 0
BBX 7 6 0 1
BITMAP
CC
D8
F0
D8
CC
C6
ENDCHAR
STARTCHAR afii10029
ENCODING 1051
SWIDTH 1000 0
DWIDTH 8 0
BBX 7 6 0 1
BITMAP
3E
66
66
66
66
C6
ENDCHAR
STARTCHAR afii10030
ENCODING 1052
SWIDTH 1000 0
DWIDTH 8 0
BBX 7 6 0 1
BITMAP
C6
EE
D6
D6
C6
C6
ENDCHAR
STARTCHAR afii10031
ENCODING 1053
SWIDTH 1000 0
DWIDTH 8 0
BBX 7 6 0 1
BITMAP
C6
C6
FE
C6
C6
C6
ENDCHAR
STARTCHAR afii10032
ENCODING 1054
SWIDTH 1000 0
DWIDTH 8 0
BBX 7 6 0 1
BITMAP
7C
C6
C6
C6
C6
7C
ENDCHAR
STARTCHAR afii10033
ENCODING 1055
SWIDTH 1000 0
DWIDTH 8 0
BBX 7 6 0 1
BITMAP
FE
C6
C6
C6
C6
C6
ENDCHAR
STARTCHAR afii10034
ENCODING 1056
SWIDTH 1000 0
DWIDTH 8 0
BBX 7 6 0 1
BITMAP
FC
C6
C6
FC
C0
C0
ENDCHAR
STARTCHAR afii10035
ENCODING 1057
SWIDTH 1000 0
DWIDTH 8 0
BBX 7 6 0 1
BITMAP
7C
C6
C0
C0
C6
7C
ENDCHAR
STARTCHAR afii10036
ENCODING 1058
SWIDTH 1000 0
DWIDTH 8 0
BBX 6 6 1 1
BITMAP
FC
30
30
30
30
30
ENDCHAR
STARTCHAR afii10037
ENCODING 1059
SWIDTH 1000 0
DWIDTH 8 0
BBX 7 6 0 1
BITMAP
C6
C6
C6
7E
06
7C
ENDCHAR
STARTCHAR afii10038
ENCODING 1060
SWIDTH 1000 0
DWIDTH 8 0
BBX 7 6 0 1
BITMAP
7C
D6
D6
D6
7C
10
ENDCHAR
STARTCHAR afii10039
ENCODING 1061
SWIDTH 1000 0
DWIDTH 8 0
BBX 7 6 0 1
BITMAP
C6
6C
38
38
6C
C6
ENDCHAR
STARTCHAR afii10040
ENCODING 1062
SWIDTH 1000 0
DWIDTH 8 0
BBX 8 7 0 0
BITMAP
C6
C6
C6
C6
C6
FF
03
ENDCHAR
STARTCHAR afii10041
ENCODING 1063
SWIDTH 1000 0
DWIDTH 8 0
BBX 7 6 0 1
BITMAP
C6
C6
C6
7E
06
06
ENDCHAR
STARTCHAR afii10042
ENCODING 1064
SWIDTH 1000 0
DWIDTH 8 0
BBX 7 6 0 1
BITMAP
D6
D6
D6
D6
D6
FE
ENDCHAR
STARTCHAR afii10043
ENCODING 1065
SWIDTH 1000 0
DWIDTH 8 0
BBX 8 7 0 0
BITMAP
D6
D6
D6
D6
D6
FF
03
ENDCHAR
STARTCHAR afii10044
ENCODING 1066
SWIDTH 1000 0
DWIDTH 8 0
BBX 7 6 0 1
BITMAP
E0
60
7C
66
66
7C
ENDCHAR
STARTCHAR afii10045
ENCODING 1067
SWIDTH 1000 0
DWIDTH 8 0
BBX 7 6 0 1
BITMAP
C6
C6
E6
D6
D6
E6
ENDCHAR
STARTCHAR afii10046
ENCODING 1068
SWIDTH 1000 0
DWIDTH 8 0
BBX 6 6 0 1
BITMAP
C0
C0
F8
CC
CC
F8
ENDCHAR
STARTCHAR afii10047
ENCODING 1069
SWIDTH 1000 0
DWIDTH 8 0
BBX 7 6 0 1
BITMAP
7C
C6
1E
06
C6
7C
ENDCHAR
STARTCHAR afii10048
ENCODING 1070
SWIDTH 1000 0
DWIDTH 8 0
BBX 7 6 0 1
BITMAP
CC
D6
F6
D6
D6
CC
ENDCHAR
STARTCHAR afii10049
ENCODING 1071
SWIDTH 1000 0
DWIDTH 8 0
BBX 7 6 0 1
BITMAP
7E
C6
C6
7E
C6
C6
ENDCHAR
STARTCHAR afii10065
ENCODING 1072
SWIDTH 1000 0
DWIDTH 8 0
BBX 6 5 1 1
BITMAP
78
0C
7C
8C
7C
ENDCHAR
STARTCHAR afii10066
ENCODING 1073
SWIDTH 1000 0
DWIDTH 8 0
BBX 6 7 1 1
BITMAP
7C
C0
78
CC
CC
CC
78
ENDCHAR
STARTCHAR afii10067
ENCODING 1074
SWIDTH 1000 0
DWIDTH 8 0
BBX 6 5 1 1
BITMAP
F8
CC
F8
CC
F8
ENDCHAR
STARTCHAR afii10068
ENCODING 1075
SWIDTH 1000 0
DWIDTH 8 0
BBX 5 5 1 1
BITMAP
F8
C0
C0
C0
C0
ENDCHAR
STARTCHAR afii10069
ENCODING 1076
SWIDTH 1000 0
DWIDTH 8 0
BBX 7 6 0 0
BITMAP
3C
6C
6C
6C
FE
C6
ENDCHAR
STARTCHAR afii10070
ENCODING 1077
SWIDTH 1000 0
DWIDTH 8 0
BBX 6 5 1 1
BITMAP
78
CC
F8
C0
7C
ENDCHAR
STARTCHAR afii10072
ENCODING 1078
SWIDTH 1000 0
DWIDTH 8 0
BBX 7 5 0 1
BITMAP
D6
D6
7C
D6
D6
ENDCHAR
STARTCHAR afii10073
ENCODING 1079
SWIDTH 1000 0
DWIDTH 8 0
BBX 6 5 1 1
BITMAP
F8
0C
38
0C
F8
ENDCHAR
STARTCHAR afii10074
ENCODING 1080
SWIDTH 1000 0
DWIDTH 8 0
BBX 6 5 1 1
BITMAP
CC
DC
FC
EC
CC
ENDCHAR
STARTCHAR afii10075
ENCODING 1081
SWIDTH 1000 0
DWIDTH 8 0
BBX 6 7 1 1
BITMAP
30
00
CC
DC
FC
EC
CC
ENDCHAR
STARTCHAR afii10076
ENCODING 1082
SWIDTH 1000 0
DWIDTH 8 0
BBX 6 5 1 1
BITMAP
CC
D8
F0
D8
CC
ENDCHAR
STARTCHAR afii10077
ENCODING 1083
SWIDTH 1000 0
DWIDTH 8 0
BBX 6 5 1 1
BITMAP
3C
6C
CC
CC
CC
ENDCHAR
STARTCHAR afii10078
ENCODING 1084
SWIDTH 1000 0
DWIDTH 8 0
BBX 7 5 0 1
BITMAP
C6
EE
D6
C6
C6
ENDCHAR
STARTCHAR afii10079
ENCODING 1085
SWIDTH 1000 0
DWIDTH 8 0
BBX 6 5 1 1
BITMAP
CC
CC
FC
CC
CC
ENDCHAR
STARTCHAR afii10080
ENCODING 1086
SWIDTH 1000 0
DWIDTH 8 0
BBX 6 5 1 1
BITMAP
78
CC
CC
CC
78
ENDCHAR
STARTCHAR afii10081
ENCODING 1087
SWIDTH 1000 0
DWIDTH 8 0
BBX 6 5 1 1
BITMAP
FC
CC
CC
CC
CC
ENDCHAR
STARTCHAR afii10082
ENCODING 1088
SWIDTH 1000 0
DWIDTH 8 0
BBX 6 6 1 0
BITMAP
F8
CC
CC
F8
C0
C0
ENDCHAR
STARTCHAR afii10083
ENCODING 1089
SWIDTH 1000 0
DWIDTH 8 0
BBX 5 5 1 1
BITMAP
78
C0
C0
C0
78
ENDCHAR
STARTCHAR afii10084
ENCODING 1090
SWIDTH 1000 0
DWIDTH 8 0
BBX 6 5 1 1
BITMAP
FC
30
30
30
30
ENDCHAR
STARTCHAR afii10085
ENCODING 1091
SWIDTH 1000 0
DWIDTH 8 0
BBX 6 6 1 0
BITMAP
CC
CC
CC
7C
0C
78
ENDCHAR
STARTCHAR afii10086
ENCODING 1092
SWIDTH 1000 0
DWIDTH 8 0
BBX 7 7 0 0
BITMAP
10
7C
D6
D6
D6
7C
10
ENDCHAR
STARTCHAR afii10087
ENCODING 1093
SWIDTH 1000 0
DWIDTH 8 0
BBX 6 5 1 1
BITMAP
CC
78
30
78
CC
ENDCHAR
STARTCHAR afii10088
ENCODING 1094
SWIDTH 1000 0
DWIDTH 8 0
BBX 7 6 1 0
BITMAP
CC
CC
CC
CC
FE
06
ENDCHAR
STARTCHAR afii10089
ENCODING 1095
SWIDTH 1000 0
DWIDTH 8 0
BBX 6 5 1 1
BITMAP
CC
CC
7C
0C
0C
ENDCHAR
STARTCHAR afii10090
ENCODING 1096
SWIDTH 1000 0
DWIDTH 8 0
BBX 7 5 0 1
BITMAP
D6
D6
D6
D6
FE
ENDCHAR
STARTCHAR afii10091
ENCODING 1097
SWIDTH 1000 0
DWIDTH 8 0
BBX 8 6 0 0
BITMAP
D6
D6
D6
D6
FF
03
ENDCHAR
STARTCHAR afii10092
ENCODING 1098
SWIDTH 1000 0
DWIDTH 8 0
BBX 7 5 0 1
BITMAP
E0
60
7C
66
7C
ENDCHAR
STARTCHAR afii10093
ENCODING 1099
SWIDTH 1000 0
DWIDTH 8 0
BBX 7 5 0 1
BITMAP
C6
C6
E6
D6
E6
ENDCHAR
STARTCHAR afii10094
ENCODING 1100
SWIDTH 1000 0
DWIDTH 8 0
BBX 6 5 1 1
BITMAP
C0
C0
F8
CC
F8
ENDCHAR
STARTCHAR afii10095
ENCODING 1101
SWIDTH 1000 0
DWIDTH 8 0
BBX 6 5 1 1
BITMAP
78
8C
3C
8C
78
ENDCHAR
STARTCHAR afii10096
ENCODING 1102
SWIDTH 1000 0
DWIDTH 8 0
BBX 7 5 0 1
BITMAP
CC
D6
F6
D6
CC
ENDCHAR
STARTCHAR afii10097
ENCODING 1103
SWIDTH 1000 0
DWIDTH 8 0
BBX 6 5 1 1
BITMAP
7C
CC
7C
6C
CC
ENDCHAR
STARTCHAR afii10071
ENCODING 1105
SWIDTH 1000 0
DWIDTH 8 0
BBX 6 7 1 1
BITMAP
48
00
78
CC
F8
C0
7C
ENDCHAR
STARTCHAR afii10102
ENCODING 1109
SWIDTH 1000 0
DWIDTH 8 0
BBX 6 5 1 1
BITMAP
78
C0
78
0C
F8
ENDCHAR
STARTCHAR afii10103
ENCODING 1110
SWIDTH 1000 0
DWIDTH 8 0
BBX 4 7 2 1
BITMAP
60
00
E0
60
60
60
F0
ENDCHAR
STARTCHAR afii10105
ENCODING 1112
SWIDTH 1000 0
DWIDTH 8 0
BBX 5 8 1 0
BITMAP
18
00
18
18
18
18
98
70
ENDCHAR
ENDFONT
